<svg width="24" height="24" viewBox="0 0 24 24" fill="none" xmlns="http://www.w3.org/2000/svg">
<g clip-path="url(#clip0_5643_4030)">
<path d="M0 0H24V24H0" fill="#BD3D44"/>
<path d="M0 2.71875H24H0ZM0 6.42188H24H0ZM0 10.125H24H0ZM0 13.8281H24H0ZM0 17.5312H24H0ZM0 21.2344H24H0Z" fill="black"/>
<path d="M0 2.71875H24M0 6.42188H24M0 10.125H24M0 13.8281H24M0 17.5312H24M0 21.2344H24" stroke="white" stroke-width="1.25"/>
<path d="M-6.75 0H12V13.5H-6.75V0Z" fill="#192F5D"/>
<mask id="mask0_5643_4030" style="mask-type:alpha" maskUnits="userSpaceOnUse" x="-7" y="-2" width="20" height="14">
<path d="M-6.73047 -1.5H12.0011V11.9741H-6.73047V-1.5Z" fill="#192F5D"/>
</mask>
<g mask="url(#mask0_5643_4030)">
</g>
<mask id="mask1_5643_4030" style="mask-type:alpha" maskUnits="userSpaceOnUse" x="-7" y="0" width="19" height="15">
<path d="M-6.85352 0.775391H11.878V14.2495H-6.85352V0.775391Z" fill="#192F5D"/>
</mask>
<g mask="url(#mask1_5643_4030)">
<path d="M-4.48242 8.75586H-3.8125L-4.33887 9.27539L-4.13574 10.0947L-4.79004 9.63379L-5.4668 10.0947L-5.23828 9.27539L-5.83984 8.75586H-5.05469L-4.79102 8.08789L-4.48242 8.75586ZM-0.75293 8.75586H-0.0830078L-0.609375 9.27539L-0.40625 10.0947L-1.06055 9.63379L-1.7373 10.0947L-1.50879 9.27539L-2.11035 8.75586H-1.3252L-1.06152 8.08789L-0.75293 8.75586ZM2.97852 8.75586H3.64746L3.12109 9.27539L3.3252 10.0947L2.66992 9.63379L1.99316 10.0947L2.22168 9.27539L1.62109 8.75586H2.40625L2.66895 8.08789L2.97852 8.75586ZM6.70898 8.75586H7.37891L6.85254 9.27539L7.05566 10.0947L6.40137 9.63379L5.72461 10.0947L5.95312 9.27539L5.35156 8.75586H6.13672L6.40039 8.08789L6.70898 8.75586ZM10.4385 8.75586H11.1084L10.582 9.27539L10.7852 10.0947L10.1309 9.63379L9.4541 10.0947L9.68262 9.27539L9.08105 8.75586H9.86621L10.1299 8.08789L10.4385 8.75586ZM-2.61621 6.94824H-1.94629L-2.47266 7.4668L-2.26953 8.28613L-2.92383 7.82617L-3.60059 8.28613L-3.37207 7.4668L-3.97363 6.94824H-3.18848L-2.9248 6.2793L-2.61621 6.94824ZM1.11328 6.94824H1.7832L1.25684 7.4668L1.45996 8.28613L0.805664 7.82617L0.128906 8.28613L0.357422 7.4668L-0.244141 6.94824H0.541016L0.804688 6.2793L1.11328 6.94824ZM4.84277 6.94824H5.5127L4.98633 7.4668L5.18945 8.28613L4.53516 7.82617L3.8584 8.28613L4.08691 7.4668L3.48535 6.94824H4.27051L4.53418 6.2793L4.84277 6.94824ZM8.57227 6.94824H9.24219L8.71582 7.4668L8.91895 8.28613L8.26465 7.82617L7.58789 8.28613L7.81641 7.4668L7.21484 6.94824H8L8.26367 6.2793L8.57227 6.94824ZM-4.48242 5.1377H-3.8125L-4.33887 5.65723L-4.13574 6.47656L-4.79004 6.0166L-5.4668 6.47656L-5.23828 5.65723L-5.83984 5.1377H-5.05469L-4.79102 4.46973L-4.48242 5.1377ZM-0.75293 5.1377H-0.0830078L-0.609375 5.65723L-0.40625 6.47656L-1.06055 6.0166L-1.7373 6.47656L-1.50879 5.65723L-2.11035 5.1377H-1.3252L-1.06152 4.46973L-0.75293 5.1377ZM2.97852 5.1377H3.64746L3.12109 5.65723L3.3252 6.47656L2.66992 6.0166L1.99316 6.47656L2.22168 5.65723L1.62109 5.1377H2.40625L2.66895 4.46973L2.97852 5.1377ZM6.70898 5.1377H7.37891L6.85254 5.65723L7.05566 6.47656L6.40137 6.0166L5.72461 6.47656L5.95312 5.65723L5.35156 5.1377H6.13672L6.40039 4.46973L6.70898 5.1377ZM10.4385 5.1377H11.1084L10.582 5.65723L10.7852 6.47656L10.1309 6.0166L9.4541 6.47656L9.68262 5.65723L9.08105 5.1377H9.86621L10.1299 4.46973L10.4385 5.1377ZM-2.61621 3.33008H-1.94629L-2.47266 3.84961L-2.26953 4.66797L-2.92383 4.20801L-3.60059 4.66797L-3.37207 3.84961L-3.97363 3.33008H-3.18848L-2.9248 2.66113L-2.61621 3.33008ZM1.11328 3.33008H1.7832L1.25684 3.84961L1.45996 4.66797L0.805664 4.20801L0.128906 4.66797L0.357422 3.84961L-0.244141 3.33008H0.541016L0.804688 2.66113L1.11328 3.33008ZM4.84277 3.33008H5.5127L4.98633 3.84961L5.18945 4.66797L4.53516 4.20801L3.8584 4.66797L4.08691 3.84961L3.48535 3.33008H4.27051L4.53418 2.66113L4.84277 3.33008ZM8.57227 3.33008H9.24219L8.71582 3.84961L8.91895 4.66797L8.26465 4.20801L7.58789 4.66797L7.81641 3.84961L7.21484 3.33008H8L8.26367 2.66113L8.57227 3.33008ZM-4.48242 1.52051H-3.8125L-4.33887 2.04004L-4.13574 2.8584L-4.79004 2.39844L-5.4668 2.8584L-5.23828 2.04004L-5.83984 1.52051H-5.05469L-4.79102 0.851562L-4.48242 1.52051ZM-0.75293 1.52051H-0.0830078L-0.609375 2.03906L-0.40625 2.8584L-1.06055 2.39844L-1.7373 2.8584L-1.50879 2.03906L-2.11035 1.52051H-1.3252L-1.06152 0.851562L-0.75293 1.52051ZM2.97852 1.52051H3.64746L3.12109 2.03906L3.3252 2.8584L2.66992 2.39844L1.99316 2.8584L2.22168 2.03906L1.62109 1.52051H2.40625L2.66895 0.851562L2.97852 1.52051ZM6.70898 1.52051H7.37891L6.85254 2.03906L7.05566 2.8584L6.40137 2.39844L5.72461 2.8584L5.95312 2.03906L5.35156 1.52051H6.13672L6.40039 0.851562L6.70898 1.52051ZM10.4385 1.52051H11.1084L10.582 2.03906L10.7852 2.8584L10.1309 2.39844L9.4541 2.8584L9.68262 2.03906L9.08105 1.52051H9.86621L10.1299 0.851562L10.4385 1.52051Z" fill="#F7FCFF"/>
</g>
<path fill-rule="evenodd" clip-rule="evenodd" d="M1.16512 11.4839L0.41371 12L0.667395 11.0816L0 10.4995H0.871708L1.16407 9.75L1.50689 10.4995H2.25L1.66612 11.0816L1.89217 12L1.16512 11.4839Z" fill="#F7FCFF"/>
<path fill-rule="evenodd" clip-rule="evenodd" d="M4.91512 11.4839L4.16371 12L4.41739 11.0816L3.75 10.4995H4.62171L4.91407 9.75L5.25689 10.4995H6L5.41612 11.0816L5.64217 12L4.91512 11.4839Z" fill="#F7FCFF"/>
<path fill-rule="evenodd" clip-rule="evenodd" d="M8.66512 11.4839L7.91371 12L8.16739 11.0816L7.5 10.4995H8.37171L8.66407 9.75L9.00689 10.4995H9.75L9.16612 11.0816L9.39217 12L8.66512 11.4839Z" fill="#F7FCFF"/>
</g>
<rect x="0.5" y="0.5" width="23" height="23" rx="11.5" stroke="#E5E6F2"/>
<defs>
<clipPath id="clip0_5643_4030">
<rect width="24" height="24" rx="12" fill="white"/>
</clipPath>
</defs>
</svg>
