<svg width="42" height="42" viewBox="0 0 42 42" fill="none" xmlns="http://www.w3.org/2000/svg">
<path d="M29.8336 35.49C28.1186 37.1525 26.2461 36.89 24.4436 36.1025C22.5361 35.2975 20.7861 35.2625 18.7736 36.1025C16.2536 37.1875 14.9236 36.8725 13.4186 35.49C4.87864 26.6875 6.13864 13.2825 15.8336 12.7925C18.1961 12.915 19.8411 14.0875 21.2236 14.1925C23.2886 13.7725 25.2661 12.565 27.4711 12.7225C30.1136 12.9325 32.1086 13.9825 33.4211 15.8725C27.9611 19.145 29.2561 26.3375 34.2611 28.35C33.2636 30.975 31.9686 33.5825 29.8161 35.5075L29.8336 35.49ZM21.0486 12.6875C20.7861 8.785 23.9536 5.565 27.5936 5.25C28.1011 9.765 23.4986 13.125 21.0486 12.6875Z" fill="#FAFAFA"/>
</svg>
