<svg width="14" height="14" viewBox="0 0 14 14" fill="none" xmlns="http://www.w3.org/2000/svg">
<path d="M12.8158 10.6918C12.8158 10.9018 12.7692 11.1177 12.67 11.3277C12.5708 11.5377 12.4425 11.736 12.2733 11.9227C11.9875 12.2377 11.6725 12.4652 11.3167 12.611C10.9667 12.7569 10.5875 12.8327 10.1792 12.8327C9.58416 12.8327 8.94832 12.6927 8.27749 12.4068C7.60666 12.121 6.93582 11.736 6.27082 11.2519C5.59999 10.7619 4.96416 10.2193 4.35749 9.61852C3.75666 9.01185 3.21416 8.37602 2.72999 7.71102C2.25166 7.04602 1.86666 6.38102 1.58666 5.72185C1.30666 5.05685 1.16666 4.42102 1.16666 3.81435C1.16666 3.41768 1.23666 3.03852 1.37666 2.68852C1.51666 2.33268 1.73832 2.00602 2.04749 1.71435C2.42082 1.34685 2.82916 1.16602 3.26082 1.16602C3.42416 1.16602 3.58749 1.20102 3.73332 1.27102C3.88499 1.34102 4.01916 1.44602 4.12416 1.59768L5.47749 3.50518C5.58249 3.65102 5.65832 3.78518 5.71082 3.91352C5.76332 4.03602 5.79249 4.15852 5.79249 4.26935C5.79249 4.40935 5.75166 4.54935 5.66999 4.68352C5.59416 4.81768 5.48332 4.95768 5.34332 5.09768L4.89999 5.55852C4.83582 5.62268 4.80666 5.69852 4.80666 5.79185C4.80666 5.83852 4.81249 5.87935 4.82416 5.92602C4.84166 5.97268 4.85916 6.00768 4.87082 6.04268C4.97582 6.23518 5.15666 6.48602 5.41332 6.78935C5.67582 7.09268 5.95582 7.40185 6.25916 7.71102C6.57416 8.02018 6.87749 8.30602 7.18666 8.56852C7.48999 8.82518 7.74082 9.00018 7.93916 9.10518C7.96832 9.11685 8.00332 9.13435 8.04416 9.15185C8.09082 9.16935 8.13749 9.17518 8.18999 9.17518C8.28916 9.17518 8.36499 9.14018 8.42916 9.07602L8.87249 8.63852C9.01832 8.49268 9.15832 8.38185 9.29249 8.31185C9.42666 8.23018 9.56082 8.18935 9.70666 8.18935C9.81749 8.18935 9.93416 8.21268 10.0625 8.26518C10.1908 8.31768 10.325 8.39352 10.4708 8.49268L12.4017 9.86352C12.5533 9.96852 12.6583 10.091 12.7225 10.2368C12.7808 10.3827 12.8158 10.5285 12.8158 10.6918Z" stroke="#C1C1CC" stroke-miterlimit="10"/>
</svg>
