<svg width="22" height="38" viewBox="0 0 22 38" fill="none" xmlns="http://www.w3.org/2000/svg">
<path d="M3 6C3 7.65685 4.34315 9 6 9C7.65685 9 9 7.65685 9 6C9 4.34315 7.65685 3 6 3C4.34315 3 3 4.34315 3 6Z" stroke="#85888E" stroke-width="2"/>
<path d="M6.27961 25L4.39217 23.908C2.24284 22.6645 1.16818 22.0428 1.02296 21.1567C1.00028 21.0183 0.994379 20.8782 1.00537 20.7387C1.07568 19.8459 2.0952 19.1577 4.13423 17.7814L13.5482 11.4272C17.2456 8.93153 18.0963 4.38227 15.4981 1" stroke="#85888E" stroke-width="2" stroke-linecap="round" stroke-linejoin="round"/>
<path d="M13.5482 11.4272C18.5482 16.4272 21 30.2647 21 37.0007M13.5482 11.4272C17.2456 8.93153 18.0963 4.38227 15.4981 1M13.5482 11.4272L8.25499 15M6.27961 25L4.39217 23.908C2.24284 22.6645 1.16818 22.0428 1.02296 21.1567C1.00028 21.0183 0.994379 20.8782 1.00537 20.7387C1.07568 19.8459 2.0952 19.1577 4.13423 17.7814L8.25499 15M4.99969 37.0007C6.94637 34.7294 8.94852 31.6 10.8997 28.7157C12.2667 26.6949 12.9502 25.6844 13.031 24.6265M8.25499 15C9.86053 17.0782 10.9672 19.0414 11.7948 20.7884C12.6728 22.6418 13.1118 23.5685 13.031 24.6265M13.031 24.6265L19 23" stroke="#85888E" stroke-width="2" stroke-linecap="round" stroke-linejoin="round"/>
</svg>
