<svg width="38" height="38" viewBox="0 0 38 38" fill="none" xmlns="http://www.w3.org/2000/svg">
<path d="M33.6339 7.87102C33.2434 8.26154 33.2434 8.89471 33.6339 9.28523C34.0245 9.67576 34.6576 9.67576 35.0481 9.28523L34.341 8.57812L33.6339 7.87102ZM31.061 2.01814L30.3539 1.31103L30.3539 1.31103L31.061 2.01814ZM28.7139 2.95103C28.3234 3.34156 28.3234 3.97472 28.7139 4.36525C29.1045 4.75577 29.7376 4.75577 30.1282 4.36524L29.4211 3.65814L28.7139 2.95103ZM34.341 8.57812L35.0481 9.28523L36.6881 7.64524L35.981 6.93813L35.2739 6.23102L33.6339 7.87102L34.341 8.57812ZM31.061 2.01814L30.3539 1.31103L28.7139 2.95103L29.4211 3.65814L30.1282 4.36524L31.7682 2.72525L31.061 2.01814ZM35.981 2.01814L36.6881 1.31103C34.939 -0.438107 32.1031 -0.438107 30.3539 1.31103L31.061 2.01814L31.7682 2.72525C32.7362 1.75715 34.3058 1.75715 35.2739 2.72525L35.981 2.01814ZM35.981 6.93813L36.6881 7.64524C38.4373 5.8961 38.4373 3.06018 36.6881 1.31103L35.981 2.01814L35.2739 2.72525C36.242 3.69334 36.242 5.26293 35.2739 6.23102L35.981 6.93813Z" fill="#85888E"/>
<path d="M9.28605 35.0481C9.67658 34.6576 9.67658 34.0245 9.28605 33.6339C8.89553 33.2434 8.26236 33.2434 7.87184 33.6339L8.57895 34.341L9.28605 35.0481ZM2.01896 31.061L1.31186 30.3539L1.31186 30.3539L2.01896 31.061ZM4.36607 30.1282C4.75659 29.7376 4.75659 29.1045 4.36607 28.7139C3.97554 28.3234 3.34238 28.3234 2.95185 28.7139L3.65896 29.4211L4.36607 30.1282ZM8.57895 34.341L7.87184 33.6339L6.23185 35.2739L6.93895 35.981L7.64606 36.6881L9.28605 35.0481L8.57895 34.341ZM2.01896 31.061L2.72607 31.7682L4.36607 30.1282L3.65896 29.4211L2.95185 28.7139L1.31186 30.3539L2.01896 31.061ZM2.01896 35.981L2.72607 35.2739C1.75798 34.3058 1.75798 32.7362 2.72607 31.7682L2.01896 31.061L1.31186 30.3539C-0.437285 32.1031 -0.437285 34.939 1.31186 36.6881L2.01896 35.981ZM6.93895 35.981L6.23185 35.2739C5.26375 36.242 3.69416 36.242 2.72607 35.2739L2.01896 35.981L1.31186 36.6881C3.061 38.4373 5.89692 38.4373 7.64606 36.6881L6.93895 35.981Z" fill="#85888E"/>
<path d="M27.0526 15.6841C27.0526 15.6841 25.337 17.9989 24.2105 18.5262C20.8098 20.118 20.1182 20.8097 18.5263 24.2104C17.999 25.3369 15.6842 27.0525 15.6842 27.0525M22.3158 10.9473C22.3158 10.9473 20.001 12.6629 19.4737 13.7894C17.8818 17.1901 17.1902 17.8817 13.7895 19.4736C12.663 20.0009 10.9474 22.3157 10.9474 22.3157" stroke="#85888E" stroke-width="2" stroke-linecap="round" stroke-linejoin="round"/>
<path d="M9.52631 22.1744L10.2334 21.4673V21.4673L9.52631 22.1744ZM15.8255 28.4736L15.1184 29.1807L15.8255 28.4736ZM9.52632 34.7728L8.81921 35.4799H8.81921L9.52632 34.7728ZM3.22711 28.4736L3.93421 27.7665H3.93421L3.22711 28.4736ZM12.6759 36.9999V37.9999V36.9999ZM18.0526 31.6232H17.0526V31.6232L18.0526 31.6232ZM6.37671 19.9473V18.9473H6.37671L6.37671 19.9473ZM1 25.324H0H1ZM9.52631 22.1744L8.81921 22.8815L15.1184 29.1807L15.8255 28.4736L16.5326 27.7665L10.2334 21.4673L9.52631 22.1744ZM9.52632 34.7728L10.2334 34.0657L3.93421 27.7665L3.22711 28.4736L2.52 29.1807L8.81921 35.4799L9.52632 34.7728ZM15.8255 34.7728L15.1184 34.0657C14.3561 34.828 13.8539 35.3272 13.4333 35.6481C13.0358 35.9514 12.8306 35.9999 12.6759 35.9999L12.6759 36.9999V37.9999C13.4437 37.9999 14.071 37.6772 14.6465 37.2381C15.1988 36.8167 15.8103 36.2023 16.5326 35.4799L15.8255 34.7728ZM9.52632 34.7728L8.81921 35.4799C9.54159 36.2023 10.153 36.8167 10.7054 37.2381C11.2808 37.6772 11.9081 37.9999 12.6759 37.9999V36.9999V35.9999C12.5212 35.9999 12.3161 35.9514 11.9185 35.6481C11.4979 35.3272 10.9958 34.828 10.2334 34.0657L9.52632 34.7728ZM15.8255 28.4736L15.1184 29.1807C15.8808 29.943 16.3799 30.4452 16.7008 30.8658C17.0042 31.2633 17.0526 31.4685 17.0526 31.6232H18.0526H19.0526C19.0526 30.8554 18.7299 30.2281 18.2909 29.6526C17.8694 29.1003 17.255 28.4889 16.5326 27.7665L15.8255 28.4736ZM15.8255 34.7728L16.5326 35.4799C17.255 34.7575 17.8694 34.1461 18.2909 33.5937C18.7299 33.0183 19.0526 32.391 19.0526 31.6232H18.0526L17.0526 31.6232C17.0526 31.7779 17.0042 31.983 16.7008 32.3806C16.3799 32.8012 15.8808 33.3033 15.1184 34.0657L15.8255 34.7728ZM3.22711 22.1744L3.93421 22.8815C4.69657 22.1191 5.19871 21.62 5.61933 21.2991C6.01687 20.9957 6.22202 20.9473 6.37671 20.9473L6.37671 19.9473L6.37671 18.9473C5.6089 18.9473 4.98161 19.27 4.40617 19.709C3.85379 20.1305 3.24238 20.7449 2.52 21.4673L3.22711 22.1744ZM9.52631 22.1744L10.2334 21.4673C9.51104 20.7449 8.89963 20.1305 8.34725 19.709C7.7718 19.27 7.14452 18.9473 6.37671 18.9473V19.9473L6.37671 20.9473C6.5314 20.9473 6.73655 20.9957 7.13409 21.2991C7.55471 21.62 8.05685 22.1191 8.81921 22.8815L9.52631 22.1744ZM3.22711 22.1744L2.52 21.4673C1.79762 22.1896 1.1832 22.8011 0.761755 23.3534C0.322703 23.9289 5.96046e-08 24.5562 0 25.324H1H2C2 25.1693 2.04848 24.9641 2.3518 24.5666C2.67272 24.146 3.17185 23.6438 3.93421 22.8815L3.22711 22.1744ZM3.22711 28.4736L3.93421 27.7665C3.17185 27.0041 2.67272 26.502 2.3518 26.0814C2.04848 25.6838 2 25.4787 2 25.324L1 25.324H0C1.78814e-07 26.0918 0.322703 26.7191 0.761755 27.2945C1.1832 27.8469 1.79762 28.4583 2.52 29.1807L3.22711 28.4736Z" fill="#85888E"/>
<path d="M22.1745 9.52631L21.4674 10.2334H21.4674L22.1745 9.52631ZM28.4737 15.8255L29.1808 15.1184L28.4737 15.8255ZM34.7729 9.52632L35.48 8.81921V8.81921L34.7729 9.52632ZM28.4737 3.22711L27.7666 3.93421V3.93421L28.4737 3.22711ZM37 12.6759H38H37ZM31.6233 18.0526L31.6233 17.0526H31.6233V18.0526ZM19.9474 6.37671L18.9474 6.37671V6.37671H19.9474ZM25.3241 1V0V1ZM22.1745 9.52631L21.4674 10.2334L27.7666 16.5326L28.4737 15.8255L29.1808 15.1184L22.8816 8.81921L22.1745 9.52631ZM34.7729 9.52632L35.48 8.81921L29.1808 2.52L28.4737 3.22711L27.7666 3.93421L34.0658 10.2334L34.7729 9.52632ZM34.7729 15.8255L35.48 16.5326C36.2024 15.8103 36.8168 15.1988 37.2382 14.6465C37.6773 14.071 38 13.4437 38 12.6759H37L36 12.6759C36 12.8306 35.9515 13.0358 35.6482 13.4333C35.3273 13.8539 34.8281 14.3561 34.0658 15.1184L34.7729 15.8255ZM34.7729 9.52632L34.0658 10.2334C34.8281 10.9958 35.3273 11.4979 35.6482 11.9185C35.9515 12.3161 36 12.5212 36 12.6759H37H38C38 11.9081 37.6773 11.2808 37.2382 10.7054C36.8168 10.153 36.2024 9.54159 35.48 8.81921L34.7729 9.52632ZM28.4737 15.8255L27.7666 16.5326C28.489 17.255 29.1004 17.8694 29.6527 18.2909C30.2282 18.7299 30.8555 19.0526 31.6233 19.0526V18.0526V17.0526C31.4686 17.0526 31.2635 17.0042 30.8659 16.7008C30.4453 16.3799 29.9431 15.8808 29.1808 15.1184L28.4737 15.8255ZM34.7729 15.8255L34.0658 15.1184C33.3034 15.8808 32.8013 16.3799 32.3807 16.7008C31.9831 17.0042 31.778 17.0526 31.6233 17.0526L31.6233 18.0526V19.0526C32.3911 19.0526 33.0184 18.7299 33.5938 18.2909C34.1462 17.8694 34.7576 17.255 35.48 16.5326L34.7729 15.8255ZM22.1745 3.22711L21.4674 2.52C20.745 3.24238 20.1306 3.85379 19.7091 4.40617C19.2701 4.98161 18.9474 5.6089 18.9474 6.37671L19.9474 6.37671L20.9474 6.37671C20.9474 6.22202 20.9959 6.01687 21.2992 5.61933C21.6201 5.19871 22.1192 4.69657 22.8816 3.93421L22.1745 3.22711ZM22.1745 9.52631L22.8816 8.81921C22.1192 8.05685 21.6201 7.55471 21.2992 7.13409C20.9959 6.73655 20.9474 6.5314 20.9474 6.37671L19.9474 6.37671H18.9474C18.9474 7.14452 19.2701 7.7718 19.7091 8.34725C20.1306 8.89963 20.745 9.51104 21.4674 10.2334L22.1745 9.52631ZM22.1745 3.22711L22.8816 3.93421C23.6439 3.17185 24.1461 2.67272 24.5667 2.3518C24.9642 2.04848 25.1694 2 25.3241 2V1V0C24.5563 5.96046e-08 23.929 0.322703 23.3535 0.761755C22.8012 1.1832 22.1897 1.79762 21.4674 2.52L22.1745 3.22711ZM28.4737 3.22711L29.1808 2.52C28.4584 1.79762 27.847 1.1832 27.2946 0.761755C26.7192 0.322703 26.0919 1.78814e-07 25.3241 0V1L25.3241 2C25.4788 2 25.6839 2.04848 26.0815 2.3518C26.5021 2.67272 27.0042 3.17185 27.7666 3.93421L28.4737 3.22711Z" fill="#85888E"/>
</svg>
