<svg width="79" height="48" viewBox="0 0 79 48" fill="none" xmlns="http://www.w3.org/2000/svg">
<path d="M15.6746 0.117188C15.6993 0.117188 15.7241 0.117188 15.7496 0.117188C15.7567 0.200496 15.7638 0.283804 15.7712 0.369637C16.145 4.68713 17.3071 8.43242 19.4985 12.1888C19.5366 12.2548 19.5747 12.3209 19.614 12.389C20.4794 13.8875 21.4805 15.2595 22.6476 16.5375C22.7664 16.6703 22.8851 16.803 23.0038 16.9359C23.2284 17.1854 23.4565 17.4281 23.6973 17.6622C24.0722 18.0371 24.0722 18.0371 24.2374 18.2029C24.3929 18.3579 24.5491 18.5121 24.706 18.6657C25.2565 19.2068 25.7736 19.7503 26.2466 20.3615C26.3465 20.4865 26.4464 20.6115 26.5465 20.7364C26.5641 20.6789 26.5817 20.6214 26.5999 20.5623C27.6498 17.1623 28.9717 13.8584 31.1202 10.9891C31.1552 10.9424 31.1902 10.8956 31.2262 10.8475C31.6501 10.2856 32.0994 9.75607 32.5817 9.24351C32.7146 9.09941 32.8402 8.95593 32.9639 8.80448C33.1101 8.63088 33.2484 8.48647 33.4211 8.34142C33.6508 8.14607 33.8743 7.94597 34.0959 7.74159C34.8706 7.04483 35.7151 6.44805 36.5937 5.89055C36.6404 5.86082 36.687 5.83109 36.7351 5.80046C39.9146 3.79857 44.186 2.21204 47.9904 2.29157C47.7587 2.53614 47.5054 2.73777 47.236 2.93826C46.8294 3.24564 46.4515 3.57091 46.0779 3.91797C45.9138 4.07002 45.7469 4.21719 45.5771 4.36286C45.3256 4.58104 45.0913 4.81227 44.8601 5.05173C44.7185 5.18936 44.5744 5.31728 44.4246 5.44566C44.0572 5.76489 43.7136 6.10727 43.3704 6.452C43.2623 6.56051 43.1538 6.66861 43.0452 6.77668C42.6532 7.16841 42.2773 7.56879 41.9172 7.98996C41.8081 8.1105 41.6988 8.23082 41.5891 8.3508C41.2347 8.74456 40.8975 9.15008 40.5675 9.56452C40.5296 9.61206 40.4916 9.6596 40.4524 9.70858C39.3868 11.0466 38.4216 12.4303 37.5684 13.9133C37.5368 13.9679 37.5051 14.0225 37.4725 14.0788C36.2719 16.1595 35.3114 18.3242 34.5505 20.6005C34.5326 20.6539 34.5147 20.7074 34.4962 20.7625C33.944 22.4201 33.4899 24.1021 33.0697 25.7974C33.0468 25.8893 33.0239 25.9812 33.0003 26.0759C32.6934 27.3086 32.4014 28.5424 32.138 29.7851C31.9383 30.7246 31.712 31.6582 31.4892 32.5925C31.4267 32.8552 31.3649 33.1181 31.3033 33.3811C30.6562 36.1331 29.9637 38.9522 28.7209 41.5055C28.6886 41.5726 28.6562 41.6398 28.6229 41.709C27.9634 43.0637 27.1668 44.2653 26.0966 45.3294C26.0057 45.4203 26.0057 45.4203 25.913 45.513C24.021 47.305 21.515 47.895 18.9727 47.8885C18.7866 47.8881 18.6006 47.8885 18.4145 47.8889C17.821 47.8892 17.2391 47.8792 16.6493 47.8037C16.8743 47.6537 16.8743 47.6537 17.0916 47.5369C17.7683 47.1712 18.3319 46.7477 18.8987 46.2291C18.9541 46.1791 19.0094 46.129 19.0665 46.0774C21.9715 43.3179 22.9091 38.7476 23.6458 34.9683C23.6567 34.9125 23.6676 34.8568 23.6788 34.7994C23.879 33.7692 24.0463 32.7348 24.2034 31.6973C24.2141 31.6269 24.2248 31.5564 24.2358 31.4838C24.3677 30.6097 24.4892 29.7348 24.5979 28.8575C24.6065 28.789 24.6152 28.7205 24.6241 28.6499C24.6316 28.5894 24.639 28.529 24.6468 28.4667C24.672 28.3092 24.672 28.3092 24.747 28.0843C24.7057 28.0654 24.6643 28.0466 24.6217 28.0272C23.8474 27.6153 23.1617 26.9524 22.4864 26.3982C22.3637 26.2979 22.2403 26.1983 22.1169 26.0988C21.7009 25.7631 21.3008 25.4145 20.9082 25.0517C20.7505 24.908 20.5913 24.7686 20.4293 24.63C20.044 24.2937 19.6827 23.9337 19.3213 23.5722C19.2041 23.4552 19.0864 23.3388 18.9685 23.2224C18.4864 22.7429 18.048 22.2436 17.624 21.7111C17.5071 21.5766 17.39 21.4422 17.2726 21.3081C16.7309 20.6598 16.2806 19.9465 15.8245 19.2368C15.7726 19.1573 15.7207 19.0779 15.6673 18.996C13.0797 14.8241 13.0645 9.44409 14.1466 4.80726C14.5299 3.20073 15.0849 1.65737 15.6746 0.117188Z" fill="#00B4CC"/>
<path d="M36.4446 19.9844C45.0304 19.9844 53.6162 19.9844 62.4622 19.9844C62.2837 22.2152 62.2837 22.2152 62.1841 23.2678C62.1545 23.5813 62.1252 23.8949 62.0962 24.2085C61.9369 25.902 61.7463 27.5901 61.5625 29.2817C52.4076 29.2817 43.2526 29.2817 33.8203 29.2817C34.2108 26.9389 34.8943 24.6708 35.6011 22.4071C35.6258 22.3274 35.6258 22.3274 35.6511 22.246C35.6672 22.1943 35.6834 22.1425 35.7 22.0892C35.7139 22.0445 35.7278 21.9998 35.7421 21.9537C35.9559 21.285 36.1969 20.6449 36.4446 19.9844Z" fill="#00B4CC"/>
<path d="M50.075 2.27344C50.1671 2.27409 50.1671 2.27409 50.2611 2.27476C50.3261 2.27463 50.3912 2.2745 50.4582 2.27437C50.6774 2.27412 50.8966 2.27495 51.1158 2.27577C51.2724 2.27581 51.429 2.27579 51.5857 2.2757C52.012 2.27566 52.4383 2.27654 52.8646 2.27759C53.3097 2.27852 53.7548 2.27861 54.1999 2.27879C55.0433 2.27926 55.8866 2.28049 56.73 2.28199C57.8693 2.28398 59.0086 2.28479 60.1479 2.28567C61.9436 2.28708 63.7394 2.29007 65.5351 2.29279C65.5351 5.43515 65.5351 8.57752 65.5351 11.8151C57.2709 11.8151 49.0068 11.8151 40.4922 11.8151C40.6193 11.5608 40.6858 11.4556 40.8811 11.2715C41.0616 11.0962 41.233 10.919 41.3966 10.7279C41.7001 10.376 42.0183 10.0385 42.3361 9.69955C42.6189 9.39776 42.8992 9.09388 43.1774 8.78783C43.4667 8.47092 43.763 8.16434 44.0713 7.86583C44.2064 7.72695 44.3307 7.5868 44.4559 7.43933C44.849 6.98904 45.2754 6.57122 45.6982 6.14922C45.7885 6.05889 45.8788 5.96855 45.969 5.87819C46.1574 5.68972 46.3459 5.50137 46.5345 5.31312C46.7748 5.07323 47.0148 4.833 47.2547 4.59267C47.4408 4.40631 47.6271 4.22013 47.8134 4.034C47.9019 3.94555 47.9903 3.85704 48.0787 3.76848C48.5005 3.34603 48.9214 2.92606 49.3769 2.53943C49.6335 2.31942 49.7244 2.27532 50.075 2.27344Z" fill="#00B4CC"/>
<circle cx="24.297" cy="5.65639" r="5.02358" fill="#00B4CC"/>
<path d="M47.3906 2.28906C47.5886 2.28906 47.7865 2.28906 47.9905 2.28906C47.8915 2.38803 47.7925 2.48701 47.6905 2.58898C47.4656 2.43902 47.4656 2.43902 47.3906 2.28906Z" fill="#00B4CC"/>
</svg>
