<svg width="38" height="38" viewBox="0 0 38 38" fill="none" xmlns="http://www.w3.org/2000/svg">
<path d="M1 22.7248C3.28262 22.7248 6.47025 22.1828 8.46873 23.3544L12.4342 25.679C13.9075 26.5426 15.5032 26.2582 17.147 26.0517C19.3125 25.7796 21.25 27.2572 21.25 29.1807C21.25 29.7064 16.5863 31.0424 15.9121 31.2965C14.5879 31.7955 13.0667 31.6727 11.868 30.97L7.39474 28.3478" stroke="#85888E" stroke-width="2" stroke-linecap="round" stroke-linejoin="round"/>
<path d="M21.25 28.0004L30.4547 24.5976C32.105 24.1375 33.9244 24.4967 35.1544 25.5254L36.6636 26.7876C37.203 27.2387 37.0761 27.9961 36.4093 28.3059L18.7366 36.517C17.6719 37.0117 16.4158 37.1324 15.2446 36.8526L1 33.4489" stroke="#85888E" stroke-width="2" stroke-linecap="round" stroke-linejoin="round"/>
<path d="M19.0039 19C19.0039 19 23.7289 14.9706 23.7289 10C23.7289 5.02944 19.0039 1 19.0039 1C19.0039 1 14.2789 5.02944 14.2789 10C14.2789 14.9706 19.0039 19 19.0039 19ZM19.0039 19C19.0039 19 25.9047 18.8769 30.2539 15.3265C34.6031 11.7761 34.7539 6.14286 34.7539 6.14286C34.7539 6.14286 31.8976 6.1938 28.7021 7.17556M19.0039 19C19.0039 19 12.1031 18.8769 7.75391 15.3265C3.40466 11.7761 3.25391 6.14286 3.25391 6.14286C3.25391 6.14286 6.11017 6.1938 9.30567 7.17556" stroke="#85888E" stroke-width="2" stroke-linecap="round" stroke-linejoin="round"/>
</svg>
