<svg width="24" height="24" viewBox="0 0 24 24" fill="none" xmlns="http://www.w3.org/2000/svg">
<path d="M11.999 7.375C10.7726 7.375 9.59651 7.86217 8.72934 8.72934C7.86217 9.59651 7.375 10.7726 7.375 11.999C7.375 13.2254 7.86217 14.4015 8.72934 15.2687C9.59651 16.1358 10.7726 16.623 11.999 16.623C13.2254 16.623 14.4015 16.1358 15.2687 15.2687C16.1358 14.4015 16.623 13.2254 16.623 11.999C16.623 10.7726 16.1358 9.59651 15.2687 8.72934C14.4015 7.86217 13.2254 7.375 11.999 7.375ZM11.999 15.002C11.6045 15.002 11.2139 14.9243 10.8494 14.7733C10.485 14.6224 10.1538 14.4011 9.87485 14.1221C9.5959 13.8432 9.37463 13.512 9.22367 13.1476C9.0727 12.7831 8.995 12.3925 8.995 11.998C8.995 11.6035 9.0727 11.2129 9.22367 10.8484C9.37463 10.484 9.5959 10.1528 9.87485 9.87385C10.1538 9.5949 10.485 9.37363 10.8494 9.22267C11.2139 9.0717 11.6045 8.994 11.999 8.994C12.7957 8.994 13.5598 9.31049 14.1231 9.87385C14.6865 10.4372 15.003 11.2013 15.003 11.998C15.003 12.7947 14.6865 13.5588 14.1231 14.1221C13.5598 14.6855 12.7957 15.002 11.999 15.002Z" fill="#FAFAFA"/>
<path d="M16.8046 8.28881C17.3999 8.28881 17.8826 7.80617 17.8826 7.21081C17.8826 6.61545 17.3999 6.13281 16.8046 6.13281C16.2092 6.13281 15.7266 6.61545 15.7266 7.21081C15.7266 7.80617 16.2092 8.28881 16.8046 8.28881Z" fill="#FAFAFA"/>
<path d="M20.531 6.11381C20.2998 5.51584 19.9461 4.9728 19.4927 4.51954C19.0392 4.06628 18.4961 3.71281 17.898 3.48181C17.1984 3.21906 16.4592 3.07704 15.712 3.06181C14.749 3.01981 14.444 3.00781 12.002 3.00781C9.56 3.00781 9.247 3.00781 8.292 3.06181C7.54548 3.07726 6.807 3.21928 6.108 3.48181C5.50994 3.71281 4.96676 4.06628 4.51333 4.51954C4.0599 4.9728 3.70623 5.51584 3.475 6.11381C3.21259 6.8135 3.07091 7.55268 3.056 8.29981C3.013 9.26181 3 9.56681 3 12.0098C3 14.4528 3 14.7628 3.056 15.7198C3.071 16.4678 3.212 17.2058 3.475 17.9068C3.70634 18.5049 4.06017 19.048 4.51378 19.5012C4.96738 19.9545 5.51075 20.3079 6.109 20.5388C6.80652 20.8117 7.54541 20.9639 8.294 20.9888C9.257 21.0308 9.562 21.0438 12.004 21.0438C14.446 21.0438 14.759 21.0438 15.714 20.9888C16.4611 20.9739 17.2003 20.8322 17.9 20.5698C18.4982 20.3387 19.0414 19.9851 19.4948 19.5316C19.9483 19.0782 20.3019 18.535 20.533 17.9368C20.796 17.2368 20.937 16.4988 20.952 15.7508C20.995 14.7888 21.008 14.4838 21.008 12.0408C21.008 9.59781 21.008 9.28781 20.952 8.33081C20.94 7.57312 20.7976 6.82316 20.531 6.11381ZM19.313 15.6458C19.3074 16.2222 19.2022 16.7933 19.002 17.3338C18.8511 17.7223 18.621 18.075 18.3262 18.3696C18.0315 18.6642 17.6786 18.8942 17.29 19.0448C16.7551 19.243 16.1903 19.3482 15.62 19.3558C14.67 19.3998 14.402 19.4108 11.966 19.4108C9.528 19.4108 9.279 19.4108 8.311 19.3558C7.74101 19.348 7.17654 19.2429 6.642 19.0448C6.25216 18.895 5.89789 18.6654 5.60188 18.3708C5.30588 18.0761 5.07465 17.723 4.923 17.3338C4.72681 16.7988 4.62169 16.2346 4.612 15.6648C4.569 14.7148 4.559 14.4468 4.559 12.0108C4.559 9.57481 4.559 9.32481 4.612 8.35581C4.61771 7.77976 4.72292 7.20903 4.923 6.66881C5.228 5.87981 5.853 5.25881 6.642 4.95681C7.17654 4.75876 7.74101 4.65358 8.311 4.64581C9.262 4.60281 9.529 4.59081 11.966 4.59081C14.403 4.59081 14.653 4.59081 15.62 4.64581C16.1903 4.65347 16.7551 4.75865 17.29 4.95681C17.6786 5.10757 18.0316 5.33767 18.3264 5.63244C18.6211 5.9272 18.8512 6.28017 19.002 6.66881C19.1982 7.20386 19.3033 7.76801 19.313 8.33781C19.356 9.28881 19.367 9.55581 19.367 11.9928C19.367 14.4298 19.367 14.6908 19.324 15.6468L19.313 15.6458Z" fill="#FAFAFA"/>
</svg>
