<svg width="48" height="48" viewBox="0 0 48 48" fill="none" xmlns="http://www.w3.org/2000/svg">
<path opacity="0.12" d="M42.0012 23C42.0012 32.3888 34.39 40 25.0012 40C22.8476 40 20.7876 39.5996 18.8915 38.8691C18.5448 38.7355 18.3715 38.6687 18.2337 38.637C18.0981 38.6057 18 38.5927 17.8609 38.5873C17.7196 38.5819 17.5645 38.598 17.2543 38.63L7.01229 39.6887C6.0358 39.7897 5.54756 39.8402 5.25955 39.6645C5.0087 39.5115 4.83784 39.2558 4.79236 38.9655C4.74014 38.6323 4.97345 38.2004 5.44008 37.3367L8.71139 31.2816C8.98079 30.783 9.1155 30.5336 9.17651 30.2939C9.23676 30.0571 9.25133 29.8864 9.23206 29.6429C9.21254 29.3962 9.10434 29.0752 8.88794 28.4332C8.3129 26.7272 8.0012 24.9 8.0012 23C8.0012 13.6112 15.6124 6 25.0012 6C34.39 6 42.0012 13.6112 42.0012 23Z" fill="white"/>
<path d="M20.9993 18.0045C21.3516 17.0027 22.0472 16.158 22.9627 15.62C23.8782 15.0819 24.9546 14.8852 26.0013 15.0647C27.0479 15.2443 27.9973 15.7884 28.6811 16.6008C29.365 17.4132 29.7393 18.4414 29.7377 19.5034C29.7377 22.5011 25.2411 24 25.2411 24M25.2991 30H25.3191M24.9993 40C34.3881 40 41.9992 32.3888 41.9992 23C41.9992 13.6112 34.3881 6 24.9993 6C15.6104 6 7.99925 13.6112 7.99925 23C7.99925 24.9 8.31094 26.7272 8.88599 28.4332C9.10239 29.0752 9.21059 29.3962 9.2301 29.6429C9.24938 29.8864 9.23481 30.0571 9.17456 30.2939C9.11354 30.5336 8.97884 30.783 8.70944 31.2816L5.43812 37.3367C4.9715 38.2004 4.73819 38.6323 4.79041 38.9655C4.83589 39.2558 5.00674 39.5115 5.2576 39.6645C5.5456 39.8402 6.03385 39.7897 7.01033 39.6887L17.2524 38.63C17.5625 38.598 17.7176 38.5819 17.859 38.5873C17.998 38.5927 18.0961 38.6057 18.2317 38.637C18.3696 38.6687 18.5429 38.7355 18.8896 38.8691C20.7857 39.5996 22.8457 40 24.9993 40Z" stroke="white" stroke-width="2" stroke-linecap="round" stroke-linejoin="round"/>
</svg>
