<svg width="32" height="32" viewBox="0 0 32 32" fill="none" xmlns="http://www.w3.org/2000/svg">
<circle cx="16" cy="16" r="15.5" fill="#0E293D" fill-opacity="0.3" stroke="url(#paint0_linear_3157_23445)"/>
<path d="M23.4853 7.87043L23.4556 7.85186L19.6967 6L15.6396 11.4095L17.5062 13.8984C17.4503 14.837 17.0523 15.7226 16.3874 16.3875C15.7225 17.0524 14.8369 17.4504 13.8983 17.5062L11.4094 15.6397L6 19.6967L7.83645 23.4241L7.8519 23.4556L7.87052 23.4853C7.96852 23.6432 8.10531 23.7734 8.26786 23.8635C8.43041 23.9536 8.61331 24.0006 8.79916 24H9.76908C11.6379 24 13.4885 23.6319 15.215 22.9167C16.9416 22.2016 18.5104 21.1533 19.8319 19.8318C21.1533 18.5104 22.2016 16.9416 22.9167 15.215C23.6319 13.4884 24 11.6379 24 9.76904V8.79908C24.0006 8.61323 23.9536 8.43033 23.8635 8.26778C23.7734 8.10523 23.6432 7.96844 23.4853 7.87043ZM22.6109 9.76904C22.6109 16.8501 16.8501 22.6109 9.76908 22.6109H8.98426L7.75553 20.1165L11.4097 17.3759L13.4441 18.9017H13.6756C15.0613 18.9001 16.3897 18.349 17.3695 17.3692C18.3493 16.3894 18.9004 15.0609 18.902 13.6753V13.4438L17.3762 11.4094L20.1165 7.75549L22.6109 8.98443V9.76904Z" fill="#00B4CC"/>
<defs>
<linearGradient id="paint0_linear_3157_23445" x1="0" y1="16" x2="32" y2="16" gradientUnits="userSpaceOnUse">
<stop stop-color="#C6A7F5"/>
<stop offset="1" stop-color="#01A2BC"/>
</linearGradient>
</defs>
</svg>
