<svg width="27" height="29" viewBox="0 0 27 29" fill="none" xmlns="http://www.w3.org/2000/svg">
<g clip-path="url(#clip0_2944_66305)">
<path d="M12.2518 13.8281L0.109375 26.5497C0.245733 27.0329 0.490772 27.4786 0.825762 27.8526C1.16075 28.2266 1.57682 28.5191 2.04217 28.7077C2.50751 28.8962 3.00981 28.9759 3.51067 28.9406C4.01153 28.9053 4.49769 28.756 4.93198 28.504L18.5945 20.7227L12.2518 13.8281Z" fill="#EA4335"/>
<path d="M24.5272 11.6653L18.6191 8.28125L11.9688 14.1171L18.6461 20.7041L24.5093 17.3563C25.0287 17.0843 25.4637 16.6754 25.7673 16.1738C26.0708 15.6722 26.2313 15.0971 26.2313 14.5108C26.2313 13.9245 26.0708 13.3494 25.7673 12.8478C25.4637 12.3462 25.0287 11.9372 24.5093 11.6652L24.5272 11.6653Z" fill="#FBBC04"/>
<path d="M0.108654 2.40625C0.0353024 2.67759 -0.00123221 2.95756 3.17017e-05 3.23864V25.7138C0.000755992 25.9948 0.0372568 26.2746 0.108654 26.5463L12.6673 14.1505L0.108654 2.40625Z" fill="#4285F4"/>
<path d="M12.3423 14.4768L18.6216 8.27894L4.97728 0.461444C4.46391 0.160808 3.88004 0.00159097 3.28513 6.28473e-06C1.8088 -0.00286297 0.510866 0.976989 0.109375 2.39778L12.3423 14.4768Z" fill="#34A853"/>
</g>
<defs>
<clipPath id="clip0_2944_66305">
<rect width="26.2332" height="29" fill="white"/>
</clipPath>
</defs>
</svg>
