<svg width="38" height="38" viewBox="0 0 38 38" fill="none" xmlns="http://www.w3.org/2000/svg">
<path d="M0.291084 19.9759C-0.0984387 20.3674 -0.0968162 21.0006 0.294708 21.3901C0.686231 21.7796 1.31939 21.778 1.70892 21.3865L1 20.6812L0.291084 19.9759ZM17.9738 1.15184L18.2425 0.188615L18.2425 0.188615L17.9738 1.15184ZM22.2699 2.35025L22.5386 1.38702L22.5386 1.38702L22.2699 2.35025ZM24.1242 3.58133L23.3473 4.21105L23.3473 4.21105L24.1242 3.58133ZM34.4766 19.5777L33.5664 19.9919L33.5664 19.9919L34.4766 19.5777ZM12.9573 3.78595L12.2219 3.10839L12.2219 3.10839L12.9573 3.78595ZM16.9854 9.52908L16.8225 8.54243L16.8225 8.54243L16.9854 9.52908ZM22.1227 11.9024L22.9159 11.2934L22.9159 11.2934L22.1227 11.9024ZM23.8828 18.341L22.8888 18.451L22.8888 18.451L23.8828 18.341ZM25.2345 21.8238L24.6731 22.6513C25.0934 22.9364 25.6606 22.8612 25.9921 22.4765C26.3236 22.0918 26.3141 21.5197 25.97 21.1462L25.2345 21.8238ZM11.4004 23.2275C11.0581 23.6609 11.132 24.2898 11.5654 24.632C11.9989 24.9743 12.6277 24.9004 12.97 24.467L12.1852 23.8472L11.4004 23.2275ZM11.0929 7.05949L10.1078 7.23127L10.1078 7.23127L11.0929 7.05949ZM36.6007 29.087L37.5295 29.4576L37.5295 29.4576L36.6007 29.087ZM28.9654 33.8422L29.2781 34.7921L29.2781 34.7921L28.9654 33.8422ZM19.8298 9.32344L20.2105 8.39875L20.2105 8.39875L19.8298 9.32344ZM15.7681 34.1187L16.486 34.8148L16.486 34.8148L15.7681 34.1187ZM1.73548 33.2872C1.36128 32.881 0.728645 32.855 0.322451 33.2292C-0.0837418 33.6034 -0.109678 34.2361 0.264522 34.6423L1 33.9647L1.73548 33.2872ZM16.0832 33.6781L16.4474 32.7468C15.9909 32.5683 15.4724 32.7469 15.2227 33.1687L16.0832 33.6781ZM16.0214 33.7825L15.1609 33.273L15.1609 33.273L16.0214 33.7825ZM16.8048 20.4912L17.1105 21.4433L16.8048 20.4912ZM17.9738 1.15184L17.7051 2.11507L22.0012 3.31347L22.2699 2.35025L22.5386 1.38702L18.2425 0.188615L17.9738 1.15184ZM24.1242 3.58133L23.3473 4.21105C28.0128 9.96644 31.0148 14.3857 33.5664 19.9919L34.4766 19.5777L35.3868 19.1634C32.7394 13.3469 29.626 8.78051 24.901 2.95162L24.1242 3.58133ZM23.8828 18.341L22.8888 18.451C23.0399 19.8154 23.4779 21.3929 24.4991 22.5013L25.2345 21.8238L25.97 21.1462C25.3686 20.4934 25.0078 19.4155 24.8767 18.2309L23.8828 18.341ZM22.1227 11.9024L21.3295 12.5114C21.6815 12.9698 21.931 13.295 22.107 13.5395C22.1942 13.6606 22.2545 13.7499 22.2959 13.8166C22.3391 13.8863 22.3474 13.9092 22.3437 13.8997L23.273 13.5305L24.2023 13.1612C24.0978 12.8982 23.9143 12.6269 23.7302 12.3711C23.5317 12.0954 23.2595 11.741 22.9159 11.2934L22.1227 11.9024ZM23.8828 18.341L24.8767 18.2309C24.7094 16.72 24.5829 15.5773 24.4848 14.7792C24.4358 14.3809 24.3927 14.058 24.3539 13.8133C24.322 13.6124 24.2777 13.351 24.2023 13.1612L23.273 13.5305L22.3437 13.8997C22.3217 13.8444 22.3384 13.8732 22.3785 14.1264C22.4117 14.3358 22.4515 14.631 22.4997 15.0232C22.596 15.8063 22.7209 16.9343 22.8888 18.451L23.8828 18.341ZM12.9573 3.78595L12.2219 3.10839C11.5646 3.8218 10.9779 4.45305 10.6001 5.04858C10.1861 5.70105 9.96267 6.39921 10.1078 7.23127L11.0929 7.05949L12.078 6.8877C12.0399 6.6689 12.0661 6.47118 12.2889 6.12004C12.5478 5.71197 12.9849 5.23188 13.6928 4.46352L12.9573 3.78595ZM34.4766 19.5777L33.5664 19.9919C34.6314 22.3317 35.3769 23.9773 35.7474 25.3564C36.103 26.6799 36.088 27.6736 35.6719 28.7164L36.6007 29.087L37.5295 29.4576C38.143 27.9201 38.1172 26.4688 37.6789 24.8375C37.2556 23.2619 36.4243 21.443 35.3868 19.1634L34.4766 19.5777ZM28.9654 33.8422L29.2781 34.7921C31.4441 34.0789 33.2028 33.5043 34.5351 32.7621C35.9322 31.9837 36.9164 30.9942 37.5295 29.4576L36.6007 29.087L35.6719 28.7164C35.2555 29.7601 34.6239 30.4232 33.5617 31.0149C32.4347 31.6427 30.8906 32.1556 28.6527 32.8924L28.9654 33.8422ZM16.9854 9.52908L17.1483 10.5157C17.9593 10.3818 18.514 10.2909 18.9249 10.2528C19.3599 10.2126 19.4612 10.2531 19.4491 10.2481L19.8298 9.32344L20.2105 8.39875C19.7408 8.20533 19.2155 8.21737 18.7405 8.26135C18.2414 8.30756 17.6026 8.41364 16.8225 8.54243L16.9854 9.52908ZM15.7681 34.1187L15.0501 33.4226C13.388 35.1369 10.8981 36.0231 8.35831 35.9995C5.81873 35.976 3.35399 35.0441 1.73548 33.2872L1 33.9647L0.264522 34.6423C2.32651 36.8806 5.35888 37.9718 8.33974 37.9995C11.3204 38.0271 14.3743 36.9928 16.486 34.8148L15.7681 34.1187ZM28.9654 33.8422L28.6527 32.8924C24.3913 34.2955 20.7489 34.4286 16.4474 32.7468L16.0832 33.6781L15.7191 34.6095C20.5215 36.4871 24.6492 36.3162 29.2781 34.7921L28.9654 33.8422ZM16.0214 33.7825L16.8819 34.2919L16.9437 34.1876L16.0832 33.6781L15.2227 33.1687L15.1609 33.273L16.0214 33.7825ZM15.7681 34.1187L16.486 34.8148C16.6471 34.6486 16.7769 34.4693 16.8819 34.2919L16.0214 33.7825L15.1609 33.273C15.1225 33.338 15.0848 33.3868 15.0501 33.4226L15.7681 34.1187ZM25.2345 21.8238L25.7959 20.9962C23.9497 19.7437 20.2716 18.3282 16.4992 19.539L16.8048 20.4912L17.1105 21.4433C20.1026 20.4829 23.1387 21.6103 24.6731 22.6513L25.2345 21.8238ZM16.8048 20.4912L16.4992 19.539C14.7079 20.114 12.9478 21.2679 11.4004 23.2275L12.1852 23.8472L12.97 24.467C14.2855 22.801 15.7191 21.8899 17.1105 21.4433L16.8048 20.4912ZM16.8048 20.4912L17.491 19.7637C15.2325 17.6335 11.9946 16.6329 8.84519 16.6667C5.696 16.7004 2.48535 17.7703 0.291084 19.9759L1 20.6812L1.70892 21.3865C3.45061 19.6358 6.1124 18.6961 8.86663 18.6666C11.6207 18.637 14.3172 19.5195 16.1187 21.2186L16.8048 20.4912ZM19.8298 9.32344L19.4491 10.2481C19.6805 10.3434 19.9586 10.5927 20.3084 11.0558C20.4746 11.2757 20.634 11.5117 20.8043 11.7643C20.9677 12.0068 21.1473 12.274 21.3295 12.5114L22.1227 11.9024L22.9159 11.2934C22.7786 11.1146 22.6351 10.9021 22.4627 10.6464C22.2972 10.4009 22.1082 10.1202 21.9042 9.85023C21.5138 9.33335 20.9649 8.70935 20.2105 8.39875L19.8298 9.32344ZM22.2699 2.35025L22.0012 3.31347C22.6041 3.48164 22.7047 3.52319 22.7777 3.57172C22.8557 3.62359 22.9408 3.70953 23.3473 4.21105L24.1242 3.58133L24.901 2.95162C24.5692 2.5423 24.2752 2.16559 23.8847 1.90607C23.4893 1.64321 23.0319 1.52463 22.5386 1.38702L22.2699 2.35025ZM17.9738 1.15184L18.2425 0.188615C16.7169 -0.236961 15.5246 0.0966108 14.5342 0.797327C13.6529 1.42088 12.8783 2.39586 12.2219 3.10839L12.9573 3.78595L13.6928 4.46352C14.515 3.57102 15.0376 2.89113 15.6894 2.42998C16.2321 2.04599 16.8087 1.86502 17.7051 2.11507L17.9738 1.15184ZM11.0929 7.05949L10.1078 7.23127C10.4036 8.92772 11.9312 9.79166 13.2285 10.1952C14.578 10.6149 16.1113 10.6869 17.1483 10.5157L16.9854 9.52908L16.8225 8.54243C16.1006 8.66161 14.8822 8.61499 13.8225 8.28539C12.7106 7.93956 12.1715 7.42351 12.078 6.8877L11.0929 7.05949Z" fill="#85888E"/>
</svg>
