<svg width="48" height="48" viewBox="0 0 48 48" fill="none" xmlns="http://www.w3.org/2000/svg">
<path opacity="0.12" d="M22.604 43.2299C23.0468 43.4882 23.2682 43.6174 23.5806 43.6844C23.8231 43.7364 24.1769 43.7364 24.4194 43.6844C24.7318 43.6174 24.9532 43.4882 25.396 43.2299C29.2921 40.9569 40 33.817 40 24.0001V16.4001C40 14.2523 40 13.1785 39.6689 12.4161C39.3324 11.6413 38.9972 11.2292 38.3071 10.7419C37.6282 10.2626 36.2972 9.98578 33.6354 9.43218C30.7016 8.82201 28.4486 7.72021 26.3888 6.12677C25.401 5.36267 24.9071 4.98062 24.5207 4.87641C24.1129 4.76646 23.8871 4.76646 23.4793 4.87641C23.0929 4.98062 22.599 5.36267 21.6112 6.12677C19.5514 7.72021 17.2984 8.82201 14.3646 9.43218C11.7027 9.98578 10.3718 10.2626 9.69289 10.7419C9.00284 11.2292 8.66757 11.6413 8.33107 12.4161C8 13.1785 8 14.2523 8 16.4001V24.0001C8 33.817 18.7079 40.9569 22.604 43.2299Z" fill="#FAFAFA"/>
<path d="M22.604 43.2299C23.0468 43.4882 23.2682 43.6174 23.5806 43.6844C23.8231 43.7364 24.1769 43.7364 24.4194 43.6844C24.7318 43.6174 24.9532 43.4882 25.396 43.2299C29.2921 40.9569 40 33.817 40 24.0001V16.4001C40 14.2523 40 13.1785 39.6689 12.4161C39.3324 11.6413 38.9972 11.2292 38.3071 10.7419C37.6282 10.2626 36.2972 9.98578 33.6354 9.43218C30.7016 8.82201 28.4486 7.72021 26.3888 6.12677C25.401 5.36267 24.9071 4.98062 24.5207 4.87641C24.1129 4.76646 23.8871 4.76646 23.4793 4.87641C23.0929 4.98062 22.599 5.36267 21.6112 6.12677C19.5514 7.72021 17.2984 8.82201 14.3646 9.43218C11.7027 9.98578 10.3718 10.2626 9.69289 10.7419C9.00284 11.2292 8.66757 11.6413 8.33107 12.4161C8 13.1785 8 14.2523 8 16.4001V24.0001C8 33.817 18.7079 40.9569 22.604 43.2299Z" stroke="#FAFAFA" stroke-width="3" stroke-linecap="round" stroke-linejoin="round"/>
</svg>
