<svg width="24" height="24" viewBox="0 0 24 24" fill="none" xmlns="http://www.w3.org/2000/svg">
<path d="M2 12C2 10.6215 2.06762 9.32133 2.15619 8.2312C2.28952 6.5848 3.62095 5.3192 5.3019 5.2044C6.91714 5.09333 9.12381 5 12 5C14.8762 5 17.0829 5.09333 18.6981 5.2044C20.379 5.3192 21.7105 6.58573 21.8438 8.2312C21.9324 9.32227 22 10.6205 22 12C22 13.428 21.9276 14.7711 21.8343 15.8855C21.7772 16.6466 21.4401 17.3616 20.8854 17.8974C20.3308 18.4332 19.5965 18.7534 18.819 18.7984C17.1876 18.9076 14.9048 19 12 19C9.09524 19 6.81238 18.9076 5.18095 18.7984C4.40351 18.7534 3.66919 18.4332 3.11457 17.8974C2.55994 17.3616 2.22276 16.6466 2.16571 15.8855C2.05753 14.593 2.00225 13.2968 2 12Z" stroke="#FAFAFA" stroke-width="1.5" stroke-linejoin="round"/>
<path d="M10.0938 14.8031V9.20312L15.3318 12.0031L10.0938 14.8031Z" stroke="#FAFAFA" stroke-width="1.5" stroke-linejoin="round"/>
</svg>
